<svg width="128" height="128" viewBox="0 0 128 128" fill="none" xmlns="http://www.w3.org/2000/svg">
<rect width="128" height="128" fill="#0084FF"/>
<path d="M14 79.8H114V100.2H14V79.8Z" fill="white"/>
<path d="M114 100.2L105.34 79.8H122.66L114 100.2Z" fill="#0084FF"/>
<path d="M114 100.2L105.34 79.8H122.66L114 100.2Z" fill="#0084FF"/>
<path d="M114 100.2L105.34 79.8H122.66L114 100.2Z" fill="#0084FF"/>
<path d="M14 80L22.6603 100.4H5.33975L14 80Z" fill="#0084FF"/>
<path d="M14 80L22.6603 100.4H5.33975L14 80Z" fill="#0084FF"/>
<path d="M14 80L22.6603 100.4H5.33975L14 80Z" fill="#0084FF"/>
<path d="M14 54H65V74.4H14V54Z" fill="white"/>
<path d="M56 64L65.75 52.7417V75.2583L56 64Z" fill="#0084FF"/>
<path d="M14 27.8H114V48.2H14V27.8Z" fill="white"/>
<path d="M14 48.2L5.33974 27.8L22.6603 27.8L14 48.2Z" fill="#0084FF"/>
<path d="M14 48.2L5.33974 27.8L22.6603 27.8L14 48.2Z" fill="#0084FF"/>
<path d="M14 48.2L5.33974 27.8L22.6603 27.8L14 48.2Z" fill="#0084FF"/>
<path d="M114 28L122.66 48.4H105.34L114 28Z" fill="#0084FF"/>
<path d="M114 28L122.66 48.4H105.34L114 28Z" fill="#0084FF"/>
<path d="M114 28L122.66 48.4H105.34L114 28Z" fill="#0084FF"/>
</svg>
